<?xml version="1.0" encoding="iso-8859-1"?>
<!-- Generator: Adobe Illustrator 19.0.0, SVG Export Plug-In . SVG Version: 6.00 Build 0)  -->
<svg className='red-flower' version="1.1" id="Layer_1" xmlns="http://www.w3.org/2000/svg" xmlns:xlink="http://www.w3.org/1999/xlink" x="0px" y="0px"
	 viewBox="0 0 512 512" style="enable-background:new 0 0 512 512;" xml:space="preserve">
<g>
	<g>
		<path d="M132.885,252.461c0-7.365,0.397-14.632,1.138-21.784c-20.264-11.958-42.114-20.036-62.894-25.465
			c-0.435-0.096-0.863-0.21-1.289-0.33C42.578,197.889,17.27,195.395,0,194.58c1.896,38.848,12.204,118.399,62.793,168.987
			c39.046,39.046,94.956,54.11,136.356,59.825C168.874,384.184,132.885,322.788,132.885,252.461z"/>
	</g>
</g>
<g>
	<g>
		<path d="M394.52,116.126c-11.802,5.564-27.47,13.751-44.093,24.669c6.44,12.797,12.254,26.49,16.94,40.908
			c13.504-6.875,27.295-12.441,40.894-16.934C404.228,145.288,398.936,128.415,394.52,116.126z"/>
	</g>
</g>
<g>
	<g>
		<path d="M255.974,88.608c-26.136,28.829-75.054,92.341-75.054,163.852c0,71.502,48.906,135.008,75.055,163.848
			c26.149-28.84,75.055-92.346,75.055-163.848S282.124,117.45,255.974,88.608z"/>
	</g>
</g>
<g>
	<g>
		<path d="M377.929,230.681c0.741,7.152,1.138,14.417,1.138,21.779c0,70.263-35.924,131.61-66.183,170.823
			c41.464-5.767,97.412-20.854,136.274-59.717c50.797-50.794,61.013-130.137,62.841-168.942
			C481.28,196.116,425.109,202.884,377.929,230.681z"/>
	</g>
</g>
<g>
	<g>
		<path d="M117.429,116.128c-4.414,12.286-9.705,29.161-13.74,48.644c13.599,4.493,27.39,10.059,40.894,16.932
			c4.687-14.42,10.499-28.112,16.94-40.908C144.902,129.88,129.236,121.692,117.429,116.128z"/>
	</g>
</g>
</svg>
