<?xml version="1.0" encoding="utf-8"?>

<!DOCTYPE svg PUBLIC "-//W3C//DTD SVG 1.1//EN" "http://www.w3.org/Graphics/SVG/1.1/DTD/svg11.dtd">
<svg version="1.1" id="Layer_1" xmlns="http://www.w3.org/2000/svg" xmlns:xlink="http://www.w3.org/1999/xlink" x="0px" y="0px"
	 viewBox="0 0 2656.7493 1570.6924" enable-background="new 0 0 2656.7493 1570.6924" xml:space="preserve">
<path fill='#8B0304' d="M2009.9493,1485.364c-142.1012-6.7307-287.0159-56.0863-412.5337-131.6266
	c155.9614,14.6146,316.608-5.3912,460.1281-61.0167c88.8953-39.0043,172.1074-92.7838,246.2258-157.385
	c109.6709,33.8163,213.9905,86.5568,304.6047,154.1068c-82.0212-73.043-177.5359-133.0031-279.9077-176.3229
	c81.4104-75.7308,150.6865-164.752,202.7981-261.4777c-61.0193,92.9056-140.8367,179.489-232.3518,249.5391
	c-89.6096-34.6779-183.8657-56.6301-278.5179-63.5557c67.7562-65.87,125.6564-142.8809,171.9276-226.6155
	c114.6228-5.7328,230.6895,8.1475,338.9421,40.6321c-102.0571-40.5851-212.3181-64.2612-323.3333-69.9551
	c50.5999-99.0078,85.2515-206.3544,101.1377-315.0702c-25.564,108.1729-70.9543,216.8336-132.9917,313.9593
	c-96.0662-1.9384-192.1453,9.671-283.4579,35.5361c41.1404-85.0716,69.2094-177.2412,84.0509-271.7518
	c105.7493-44.5904,219.5647-71.2443,332.3987-77.7437c-109.783-3.2318-221.4924,12.2312-327.7595,44.8502
	c13.6852-110.3432,9.5323-223.0672-12.7218-330.66c12.9745,110.3926,7.4856,228.0248-17.5916,340.5111
	c-90.9353,31.035-177.25,74.8053-254.2094,130.3414c9.5634-94.0122,4.4159-190.2233-13.9622-284.1104
	c84.1212-78.0696,181.9559-142.0431,285.7631-186.7421c-104.2679,34.511-203.9518,87.2487-292.6543,154.2459
	c-24.8788-108.3694-67.3353-212.8749-125.0468-306.3677c49.949,99.2975,85.0233,211.713,99.931,325.9923
	c-74.8367,60.2652-140.9758,130.9172-194.2996,209.4258c-23.1674-91.6136-60.9104-180.2617-110.2913-262.2011
	c52.347-102.1328,122.4008-195.7096,204.6598-273.217c-86.1764,68.0914-161.8114,151.7425-222.2494,245.0374
	c-60.4435-93.3247-136.0826-177.0069-222.2899-245.123c80.8988,76.2256,152.3065,169.8654,205.4009,272.154
	c-49.7122,82.2264-87.6978,171.2387-110.9546,263.2504c-53.1033-78.1652-118.8905-148.5583-193.3175-208.6669
	c14.2583-113.8769,48.0826-225.7702,98.8712-326.7375c-57.6901,93.459-100.1536,197.9338-125.0386,306.2737
	c-88.7169-67.0236-188.4153-119.7889-292.7211-154.3125c102.0902,43.9597,201.2183,107.5296,286.0958,185.4901
	c-18.5903,94.2702-23.8416,190.9061-14.2259,285.3229c-76.6343-55.2886-162.5297-98.9362-253.0276-129.9641
	c-25.5496-111.8861-32.0351-228.5999-18.8423-340.8489c-22.2465,107.5541-26.416,220.2514-12.7458,330.5688
	c-106.29-32.6384-218.0227-48.123-327.8457-44.89c110.969,6.3917,225.8602,32.224,332.2831,76.4532
	c14.7727,94.9432,42.8898,187.5472,84.2183,272.9813c-90.9229-25.7435-186.5661-37.3809-282.2183-35.5856
	c-62.2762-96.3998-108.2892-203.857-134.2831-313.8489c15.8809,108.6765,50.5076,216.0037,101.084,314.9925
	c-111.0434,5.6832-221.334,29.3474-323.4277,69.9471c106.4628-31.9473,223.261-46.9681,338.3925-41.8051
	c46.3547,84.1648,104.4483,161.5676,172.5041,227.7141c-94.2444,6.9065-188.0999,28.6832-277.3691,63.085
	c-91.4918-69.2865-171.4821-154.5259-233.5276-248.9939c52.0923,96.6908,121.3388,185.7024,202.7211,261.4232
	c-102.4022,43.3196-197.9477,103.2783-279.9986,176.3475c89.115-66.4329,193.7321-120.4952,303.6866-155.021
	c74.5413,65.1544,158.3182,119.3541,247.8623,158.5361c140.0854,57.7041,302.2555,76.309,458.1652,61.2852
	c-134.201,79.9629-289.2568,128.3739-442.9421,131.9347c-200.9429-3.236-405.5503-76.549-566.772-196.735
	c162.9435,145.1073,379.1075,238.6549,596.5984,252.4628c220.8058,9.2074,457.3292-75.8114,632.6653-209.0782l50.639-43.302
	l0.062-0.0231l0.0662-0.0005l0.0619,0.0219l0.051,0.042l0.0337,0.0568l0.0117,0.0651l-0.011,0.0649l-0.0323,0.0577l-0.1467,0.1254
	l50.7356,43.3844c178.2162,135.4559,409.8608,213.6943,633.254,209.072c217.2887-14.0143,433.1984-107.4668,596.0104-252.4564
	C2441.1091,1414.1334,2219.2419,1495.2773,2009.9493,1485.364z M503.7448,811.9597
	c87.2892,7.5098,172.8092,26.9542,251.2521,59.7867c19.7851,8.281,39.2906,17.5195,58.4814,27.5854
	c46.9256,70.0448,105.0323,134.52,170.1791,191.1272c-79.6068-26.949-162.3464-44.3833-245.1522-51.0488
	c-28.8402-17.7667-56.5455-37.1395-82.7947-58.1489C598.7372,931.8704,547.7111,874.5908,503.7448,811.9597z M590.9569,1229.8969
	c-70.4297-26.9264-137.9697-63.2994-200.7052-107.1163c84.5937-22.7976,171.606-33.7756,256.5482-29.7522
	c21.4242,1.0148,42.9125,3.0248,64.3891,5.9199c100.0723,73.1901,218.7527,126.8286,341.1219,158.4658
	C898.8536,1286.655,736.5919,1279.1143,590.9569,1229.8969z M859.5106,852.7266c-21.0248-26.5593-40.4332-54.2392-57.9139-82.9594
	c-36.6439-65.8981-65.0027-137.1753-84.896-211.0665c79.4566,36.9117,153.168,84.4327,215.6515,142.1144
	c15.7596,14.5485,30.9284,29.9008,45.5193,45.9237c20.1391,81.8699,52.6894,162.3304,94.5468,237.8052
	C1006.8302,931.9933,935.0423,887.3115,859.5106,852.7266z M1037.0677,718.6882c-10.6729-32.1484-19.4435-64.7972-26.0475-97.7643
	c-11.896-74.457-14.1653-151.1348-7.5867-227.3737c62.04,61.8612,115.0536,131.7275,154.04,207.301
	c9.8333,19.0613,18.8367,38.6758,27.0674,58.7228c-9.077,83.8203-6.0082,170.5613,7.5111,255.8005
	C1148.3922,843.5602,1096.2158,777.0206,1037.0677,718.6882z M1328.1277,891.2934
	c-16.4648-82.4158-42.7369-162.7877-78.3671-237.8325c0.9663-33.8597,3.8912-67.5393,8.9608-100.7769
	c14.2878-74.0353,38.3801-146.8652,70.637-216.2562c37.1412,79.3495,63.0613,163.134,73.8492,247.4841
	c2.7211,21.2748,4.4724,42.7858,5.3512,64.439C1371.3605,724.0117,1344.5768,806.5711,1328.1277,891.2934z M2041.6022,1092.7075
	c75.3912,1.214,151.2982,12.2936,225.2362,32.0112c-71.6941,50.3553-149.7046,90.4313-230.9,115.7025
	c-135.8326,42.2765-288.8884,45.4613-432.6729,17.4064c120.761-31.5608,236.7617-84.8358,337.5344-156.4452
	C1974.313,1096.4545,2007.9886,1093.4863,2041.6022,1092.7075z M1931.386,860.619
	c71.2604-24.6444,146.3787-40.1947,222.6018-46.9547c-50.1479,71.8397-109.7472,136.1798-177.4028,187.6974
	c-17.064,12.9938-34.8168,25.2665-53.1301,36.8537c-84.1233,5.616-169.0138,23.7002-250.6102,51.8156
	c63.1412-55.4666,119.6102-118.4048,166.7859-186.7838C1869.4369,887.1541,1900.0664,872.8471,1931.386,860.619z
	 M1471.9363,664.9132c12.4883-31.4873,26.7562-62.1356,42.8877-91.6347c38.7473-64.6839,86.2961-124.8814,140.3409-179.055
	c7.7617,87.2671,3.4635,174.8639-15.2487,257.8166c-4.7197,20.9225-10.4304,41.7354-17.011,62.3831
	c-60.8326,58.3755-114.2377,126.7957-158.6722,200.7825C1476.9486,832.129,1479.7504,747.6185,1471.9363,664.9132z
	 M1676.7958,751.6627c22.5042-25.317,46.3939-49.2369,71.6426-71.4396c58.5337-47.5306,123.8037-87.8352,193.1177-120.2573
	c-22.5537,84.6589-56.5522,165.503-102.5082,237.0531c-11.5909,18.0465-24.0758,35.6507-37.3209,52.8026
	c-77.1295,34.0493-150.715,80.0771-217.7748,134.4047C1624.3151,910.5086,1655.8523,832.053,1676.7958,751.6627z"/>
</svg>
