<?xml version="1.0" encoding="utf-8"?>
<!-- Generator: Adobe Illustrator 18.0.0, SVG Export Plug-In . SVG Version: 6.00 Build 0)  -->
<!DOCTYPE svg PUBLIC "-//W3C//DTD SVG 1.1//EN" "http://www.w3.org/Graphics/SVG/1.1/DTD/svg11.dtd">
<svg version="1.1" id="Слой_1" xmlns="http://www.w3.org/2000/svg" xmlns:xlink="http://www.w3.org/1999/xlink" x="0px" y="0px"
	 viewBox="241 0 345 1024" enable-background="new 241 0 345 1024" xml:space="preserve">
<path fill="#000000"      d="
	M471,595.8c-5.9-8.2-18.2-9.1-18.2-9.1l-4.5-3.6c1.8-2.7-7.3-9.1-7.3-9.1c2.7-1.4-7.7-7.3-7.7-7.3c1.4-5.4-2.7-10.4-2.7-10.4
	c0.5-7.7-4-16.8-4-16.8c-3.8-14.6-9.6-38.6-9.6-38.6c-2.7-10,2.7-36.8,2.7-36.8c3.6-18.2,16.7-79.4,16.7-79.4l3.4-28.1
	c7.7-12.3,6.8-49,6.8-49c1.4-41.8-10.4-111.2-10.4-111.2C432,167,378.7,72.1,378.7,72.1c0.9-9.5-10.7-44.5-10.7-44.5
	c-2.3-10.4-2.7-24.6-2.7-24.6c-5.4-1-6.2,5-6.2,5c0-5.9-3.8-5-3.8-5c0,2.7-3.2,23.6-3.2,23.6c-1.4,1.8-10,42.2-10,42.2
	c-2.3,12.3-12.3,28.1-12.3,28.1c-17.2,26.8-44.9,88-44.9,88c-4.5,3.6-5.9,25.4-5.9,25.4l-8.2,68.1c-5.4,40.8,2.3,72.2,2.3,72.2
	c3.2,14.1,4.1,36.3,4.1,36.3c-1.8,10.9,5.9,75.8,5.9,75.8c5,24.5,0,41.8,0,41.8c-13.2,25.9-21,79-21,79c1.7,1.8,2.9,4.1,2.9,4.1
	c-3.2,6.8-2.3,34.5-2.3,34.5c-2.3,2.7,2.7,13.2,2.7,13.2c-1.4,3.2,4.7,17.7,4.7,17.7l-2.5,0.8v18.3c5.4,1.4,8.2,0.9,8.2,0.9
	c-0.9,1.8,18.5,50.8,18.5,50.8c8.6,20.4,17.7,58.1,17.7,58.1c-1.9,5,1,20.4,1,20.4c-7.3,21.3,28.6,101.2,28.6,101.2
	c5.9,9.5,13.6,33.6,13.6,33.6c1.2,16.4,3.5,22.2,3.5,22.2c0,7.3-14.8,29-14.8,29c-12.7,15.4-3.6,24.5-3.6,24.5
	c27.2,30,39.9-23.6,39.9-23.6c0.9-6.8,4.1-25,4.1-25c1.9-9.8-1.5-19.8-1.5-19.8c-3-5.6-6.2-19.7-6.2-19.7
	c-3.4-15.2-7.3-59.9-7.3-59.9c2.3-20.9-12.3-59.4-5.4-67.6c6.8-8.2,24.5-44.5,24.5-44.5c10-15,51.7-20,51.7-20
	c29.7-4.7,97.6-13.2,97.6-13.2c34.5-3.2,40.8-27.2,40.8-27.2C589.9,653,471,595.8,471,595.8z M311.5,267.3c-1.1-5,0.1-41.3,0.1-41.3
	c-0.5-19.1,3.4-34,3.4-34c7.3-11.3,39.9-105.3,39.9-105.3c5-5,4.5-9.5,4.5-9.5l0.3-2.7l2,4.5c0,3.2,6.4,9.1,6.4,9.1
	c32.2,91.7,40.3,120.7,40.3,120.7c-1,18.6-0.1,52.2-0.1,52.2c0.2,7.4,0,18.2-0.2,24.4c0.2,2,0.2,3.6-0.1,4.7c0,0,0.1-1.8,0.1-4.7
	c-1.3-11.2-10.1-33.4-10.1-33.4c-3.2-25.4-13.6-29-13.6-29c-12.3-22.2-35.4-14.1-35.4-14.1C312.7,211,311.5,267.3,311.5,267.3z
	 M474.2,683.4c-6.8-0.5-76.2,25.4-76.2,25.4c-16.8,6.4-25.7,3.6-25.7,3.6c-8.6-3.6-20.9-3.2-20.9-3.2v-47.6l3.8-2.7
	c0.9-2.3,2.2-13.6,2.2-13.6c-0.4-6.3,6.8-8.6,6.8-8.6c3.6-1.8,11.4,3.2,11.4,3.2c1.4,5.4,10,9.5,10,9.5l6.4-4.1l6.4,5
	c7.7,10.9,57.6,24.1,57.6,24.1c10,2.3,23.6,8.2,23.6,8.2L474.2,683.4z"/>
</svg>
