<?xml version="1.0" encoding="UTF-8" standalone="no"?>
<!-- Created with Inkscape (http://www.inkscape.org/) -->

<svg
   xmlns:dc="http://purl.org/dc/elements/1.1/"
   xmlns:cc="http://creativecommons.org/ns#"
   xmlns:rdf="http://www.w3.org/1999/02/22-rdf-syntax-ns#"
   xmlns:svg="http://www.w3.org/2000/svg"
   xmlns="http://www.w3.org/2000/svg"
   xmlns:sodipodi="http://sodipodi.sourceforge.net/DTD/sodipodi-0.dtd"
   xmlns:inkscape="http://www.inkscape.org/namespaces/inkscape"
   height="165.61655mm"
   width="222.24077mm"
   viewBox="0 0 787.46729 586.83028"
   id="svg2"
   version="1.1"
   inkscape:version="0.91 r13725"
   sodipodi:docname="yoga.svg"
   inkscape:export-filename="/home/algot/Documents/runeman.org/clipart/yoga.png"
   inkscape:export-xdpi="51.350574"
   inkscape:export-ydpi="51.350574">
  <title
     id="title3535">Yoga</title>
  <defs
     id="defs8">
    <filter
       inkscape:collect="always"
       style="color-interpolation-filters:sRGB"
       id="filter3523"
       x="-0.095057487"
       width="1.190115"
       y="-0.50539535"
       height="2.0107906">
      <feGaussianBlur
         inkscape:collect="always"
         stdDeviation="15.078418"
         id="feGaussianBlur3525" />
    </filter>
    <filter
       inkscape:collect="always"
       style="color-interpolation-filters:sRGB"
       id="filter3527"
       x="-0.156082"
       width="1.3121639"
       y="-0.66540229"
       height="2.3308046">
      <feGaussianBlur
         inkscape:collect="always"
         stdDeviation="15.078418"
         id="feGaussianBlur3529" />
    </filter>
    <filter
       inkscape:collect="always"
       style="color-interpolation-filters:sRGB"
       id="filter3531"
       x="-0.2503494"
       width="1.5006988"
       y="-0.30835721"
       height="1.6167144">
      <feGaussianBlur
         inkscape:collect="always"
         stdDeviation="15.078418"
         id="feGaussianBlur3533" />
    </filter>
  </defs>
  <sodipodi:namedview
     pagecolor="#ffffff"
     bordercolor="#666666"
     borderopacity="1"
     objecttolerance="10"
     gridtolerance="10"
     guidetolerance="10"
     inkscape:pageopacity="0"
     inkscape:pageshadow="2"
     inkscape:window-width="1366"
     inkscape:window-height="712"
     id="namedview6"
     showgrid="false"
     inkscape:zoom="0.69871634"
     inkscape:cx="0.42396953"
     inkscape:cy="241.08458"
     inkscape:window-x="0"
     inkscape:window-y="0"
     inkscape:window-maximized="1"
     inkscape:current-layer="svg2"
     fit-margin-top="0"
     fit-margin-left="0"
     fit-margin-right="0"
     fit-margin-bottom="0" />
  <metadata
     id="metadata4">
    <rdf:RDF>
      <cc:Work
         rdf:about="">
        <dc:format>image/svg+xml</dc:format>
        <dc:type
           rdf:resource="http://purl.org/dc/dcmitype/StillImage" />
        <dc:title>Yoga</dc:title>
        <dc:date>2017-03-30</dc:date>
        <dc:creator>
          <cc:Agent>
            <dc:title>Algot Runeman</dc:title>
          </cc:Agent>
        </dc:creator>
        <dc:rights>
          <cc:Agent>
            <dc:title>Algot Runeman</dc:title>
          </cc:Agent>
        </dc:rights>
        <dc:publisher>
          <cc:Agent>
            <dc:title>runeman.org</dc:title>
          </cc:Agent>
        </dc:publisher>
        <dc:identifier>yoga.svg</dc:identifier>
        <cc:license
           rdf:resource="http://creativecommons.org/publicdomain/zero/1.0/" />
        <dc:contributor>
          <cc:Agent>
            <dc:title>Image Source: POPSUGAR Photography / Louisa Larson</dc:title>
          </cc:Agent>
        </dc:contributor>
      </cc:Work>
      <cc:License
         rdf:about="http://creativecommons.org/publicdomain/zero/1.0/">
        <cc:permits
           rdf:resource="http://creativecommons.org/ns#Reproduction" />
        <cc:permits
           rdf:resource="http://creativecommons.org/ns#Distribution" />
        <cc:permits
           rdf:resource="http://creativecommons.org/ns#DerivativeWorks" />
      </cc:License>
    </rdf:RDF>
  </metadata>
  <path
     style="fill:#000000;fill-rule:evenodd;stroke:#000000;stroke-width:0.9372313px;stroke-linecap:butt;stroke-linejoin:miter;stroke-opacity:1"
     d="m 510.90938,0.48975626 -12.3305,3.79285004 -1.8983,-1.89643 -3.7928,0 -3.7947,3.79286 14.2269,6.6393297 10.434,15.17692 16.1251,27.50555 21.8145,28.455589 2.8446,8.535757 16.1251,29.401968 27.5056,65.44694 14.2268,14.22688 15.177,25.60911 21.8144,35.09309 c 0,0 -4.9508,13.69654 -5.6911,20.86804 -1.0733,10.39724 0.755,20.91046 1.8982,31.30024 0.8755,7.95656 2.2429,15.85777 3.7929,23.71084 3.2076,16.25107 11.3822,48.37359 11.3822,48.37359 l 2.8447,19.918 -8.5358,40.7842 1.8964,24.6609 3.7947,29.4038 0.9482,36.99135 -2.8446,7.58754 0,7.58755 17.0715,0.94822 0,4.7429 2.8465,6.63933 10.4322,7.58755 28.4556,5.69112 7.5875,-1.89643 -9.484,-5.69112 22.7627,2.84464 1.8964,-3.79286 -2.8446,-2.84647 0,-4.7429 -5.6911,0 -21.8145,-1.89643 -10.434,-5.69112 15.1751,0 4.7429,-1.89643 5.6911,0 5.6911,-1.89643 3.7947,-4.7429 2.8447,-3.79469 -4.7429,0 -6.6394,0 -17.0715,-5.69112 -1.8982,-5.68928 23.7126,1.89642 5.6912,-4.74289 -3.7947,-4.74291 -18.0216,-1.89643 -13.2787,3.79469 18.9698,-52.16645 8.5376,1.89644 c 0,0 17.61167,-1.86654 24.6609,-6.63933 3.92699,-2.65883 4.7418,-11.38224 8.5358,-11.38224 3.7939,0 0,21.81443 0,21.81443 l -3.7947,12.33045 c 0,0 16.66436,-3.45609 21.8162,-9.48398 5.72949,-6.70377 10.28945,-17.58136 6.6394,-25.60911 -3.5115,-7.72303 -22.7646,-11.38223 -22.7646,-11.38223 0,0 6.81698,-6.31542 6.6394,-10.43403 -0.29145,-6.75964 -12.3304,-16.1233 -12.3304,-16.1233 l 2.8465,-5.69113 8.5357,-9.48397 c 0,0 10.777,-10.99172 13.2787,-18.02156 4.351,-12.22694 1.8964,-38.88778 1.8964,-38.88778 l -1.8964,-18.96979 -10.434,-23.71268 -20.8662,-36.99135 c 0,0 -14.762,-13.81465 -20.8663,-21.81443 -4.4732,-5.86236 -6.0818,-13.84309 -11.3822,-18.96977 -7.0191,-6.78909 -25.6091,-14.22688 -25.6091,-14.22688 l -14.2269,-2.84648 -20.8662,-18.96978 -22.7645,-20.86621 -15.1751,-10.43402 c 0,0 -8.4057,-17.39752 -11.3822,-26.55732 -2.2044,-6.78378 -1.8222,-14.35865 -4.7429,-20.86622 -2.2272,-4.96257 -5.9991,-9.10212 -9.484,-13.278657 -9.5972,-11.502141 -31.3002,-32.248447 -31.3002,-32.248447 l -6.6393,-8.53759 -8.5376,-13.27866 -0.9482,-8.53576 2.8464,-5.69113 -3.7947,-7.58754 -9.4839,-2.84647 -4.7429,-6.63934 -12.3305,-9.4839797 z m 193.4906,355.68110374 2.8447,21.81625 8.5375,13.27867 5.6893,8.53576 -18.0197,2.84465 -4.7429,1.89825 -0.9482,-28.45558 z m -12.3304,77.77556 7.5875,8.53759 0,6.63933 -5.6911,18.96978 z"
     id="path3151"
     inkscape:connector-curvature="0"
     sodipodi:nodetypes="cccccccccccccccssscccccccccccccccccccccccccccccccccccccccssccsscscccccccccscccccscsccccccccccccccccccccccc" />
  <path
     style="fill:#000000;fill-rule:evenodd;stroke:#000000;stroke-width:1.88327706px;stroke-linecap:butt;stroke-linejoin:miter;stroke-opacity:1"
     d="m 105.59588,60.119096 -11.432001,20.966172 -22.8715,26.682212 -11.4358,22.86784 c 1.7044,0 -40.39925,40.62172 -57.1786502,68.61455 -2.6131,4.3592 -1.9451,10.55096 0,15.24646 4.8134,11.62078 26.6820002,26.68221 26.6820002,26.68219 -2.3746,1.18733 68.61455,58.85241 68.61455,58.85241 l 11.435801,89.80877 7.6215,49.55006 c -0.6801,24.19489 0.9706,47.87471 16.2688,68.51891 l 10.4132,43.92966 -3.8106,3.81068 c 0,0 -0.7704,10.66132 2.9059,13.34478 5.3994,3.94134 19.9656,-1.90902 19.9656,-1.90902 l 26.6822,5.71972 20.9662,0 1.9053,-7.62507 c -14.6118,-2.04266 -29.2258,-6.38792 -43.8376,-17.36513 l -5.2747,-30.60694 -13.7826,-77.81759 0,-15.24645 7.6215,-38.11798 0,-59.08045 11.4358,0 83.861,-26.68221 24.7768,-9.53042 c 0,4e-5 -1.8102,15.46604 0,22.87153 4.2511,17.38935 24.7769,47.64469 24.7769,47.64469 l 11.4357,-1.90533 66.357,-29.2614 c 16.675,-2.22652 30.5285,-10.09581 40.0234,-26.68221 0,0 3.1737,-13.35375 -1.5569,-14.57261 -7.509,-1.93471 -13.3411,19.05714 -13.3411,19.05714 0,0 -2.3136,-13.22699 -7.625,-15.24646 -3.198,-1.21594 -9.5305,3.8107 -9.5305,3.8107 l -7.6213,15.24644 -6.5069,10.97599 -60.1987,15.70992 -5.7197,-20.96619 -1.9053,-28.58754 -5.716,-28.59123 -19.0608,-19.05717 9.4126,-17.36513 10.8767,-2.69617 c 0,0 6.7745,12.38672 14.018,12.43625 4.0677,0.0279 7.6212,-9.52674 7.6212,-9.52674 l 7.6252,-11.43575 2.7918,-0.23174 c 10.2284,-0.8474 -2.7918,-13.10937 -2.7918,-13.10937 0,0 9.11,-5.14743 11.4356,-9.5304 2.9929,-5.63982 4.29971,-13.13904 1.9055,-19.05715 -4.05747,-10.02944 -24.7769,-20.96618 -24.7769,-20.96618 -16.048,-9.9021 -23.0781,0.48875 -32.402,5.71605 l -13.3411,-2.90584 -15.2465,10.5309 -3.8106,17.1518 -28.5876,-13.3411 -40.0232,-19.05716 -24.7769,-13.3411 -40.0233,-41.932347 z m 0,41.928664 41.9323,45.74303 64.8002,51.45908 -13.3411,34.3036 -13.341,11.43575 c 0,0 -42.1509,-17.80258 -60.9895,-9.52672 -2.0967,0.92101 -3.8107,5.71602 -3.8107,5.71602 l -76.235851,-34.30726 17.15165,-22.86784 11.4358,-34.30728 15.2465,-24.77686 c 0,0 6.5519,6.88823 11.877101,4.13806 9.6124,-4.96437 5.2746,-27.00958 5.2746,-27.00958 z m 283.1426,199.00206 8.0849,4.04242 0,5.38867 -4.7155,1.34994 -4.7155,-6.73861 z"
     id="path3159"
     inkscape:connector-curvature="0"
     sodipodi:nodetypes="ccccsscccccccscccccccccccccsccccscscccccccccccccccsscccccccccccccccscccccsccccccc" />
  <path
     style="fill:none;fill-rule:evenodd;stroke:#000000;stroke-width:10;stroke-linecap:butt;stroke-linejoin:miter;stroke-opacity:1;filter:url(#filter3531)"
     d="M 216.07648,91.18424 C 284.01818,15.399713 553.80812,127.0342 465.10459,11.037271"
     id="path3186"
     inkscape:connector-curvature="0"
     sodipodi:nodetypes="cc" />
  <path
     style="fill:none;fill-rule:evenodd;stroke:#000000;stroke-width:10;stroke-linecap:butt;stroke-linejoin:miter;stroke-opacity:1;filter:url(#filter3527)"
     d="M 369.21445,211.40471 616.81138,393.1666"
     id="path3188"
     inkscape:connector-curvature="0"
     sodipodi:nodetypes="cc" />
  <path
     style="fill:none;fill-rule:evenodd;stroke:#000000;stroke-width:10;stroke-linecap:butt;stroke-linejoin:miter;stroke-opacity:1;filter:url(#filter3523)"
     d="m 373.50812,373.12986 c 123.4233,35.06533 114.05356,189.98828 251.89046,174.6059"
     id="path3190"
     inkscape:connector-curvature="0"
     sodipodi:nodetypes="cc" />
</svg>
