<?xml version="1.0" encoding="utf-8"?>
<!-- Generator: Adobe Illustrator 16.0.0, SVG Export Plug-In . SVG Version: 6.00 Build 0)  -->
<!DOCTYPE svg PUBLIC "-//W3C//DTD SVG 1.1//EN" "http://www.w3.org/Graphics/SVG/1.1/DTD/svg11.dtd">
<svg version="1.1" id="Layer_1" xmlns="http://www.w3.org/2000/svg" xmlns:xlink="http://www.w3.org/1999/xlink" x="0px" y="0px"
	 width="1329.01px" height="180.38px" viewBox="0 0 1329.01 180.38" enable-background="new 0 0 1329.01 180.38"
	 xml:space="preserve">
<g>
	<path fill="#FFFFFF" d="M273.963,151.919h-6.96c-1.595,0-2.9-1.305-2.9-2.899V97.688c0-12.18-5.655-15.515-13.195-15.515
		c-5.22,0-11.311,1.74-16.966,3.915c0.87,3.19,1.305,6.96,1.305,11.31v51.622c0,1.45-1.015,2.899-2.61,2.899h-7.686
		c-1.45,0-2.465-1.305-2.465-2.899V97.397c0-12.615-3.625-15.225-11.166-15.225c-5.22,0-11.6,2.61-17.69,5.655v61.192
		c0,1.45-1.015,2.899-2.61,2.899h-7.686c-1.45,0-2.465-1.305-2.465-2.899V75.067c0-1.595,1.16-2.9,2.755-2.9h7.25
		c1.595,0,2.755,1.305,2.755,2.9v2.755c5.8-3.625,13.195-6.815,21.171-6.815c6.235,0,10.875,1.74,14.5,5.945
		c7.976-3.77,16.531-5.945,24.071-5.945c13.05,0,23.491,6.525,23.491,26.681v51.332
		C276.863,150.614,275.558,151.919,273.963,151.919z"/>
	<path fill="#FFFFFF" d="M301.074,59.407h-7.395c-1.595,0-2.9-1.305-2.9-2.9v-11.6c0-1.595,1.305-2.9,2.9-2.9h7.395
		c1.595,0,2.9,1.305,2.9,2.9v11.6C303.974,58.102,302.669,59.407,301.074,59.407z M300.784,151.919h-6.96
		c-1.595,0-2.9-1.305-2.9-2.899V75.067c0-1.595,1.305-2.9,2.9-2.9h6.96c1.595,0,2.9,1.305,2.9,2.9v73.953
		C303.684,150.614,302.379,151.919,300.784,151.919z"/>
	<path fill="#FFFFFF" d="M376.039,151.919h-6.96c-1.595,0-2.9-1.305-2.9-2.899v-47.707c0-14.646-4.93-19.14-15.951-19.14
		c-6.09,0-12.905,2.32-19.576,5.655v61.192c0,1.45-1.305,2.899-2.9,2.899h-7.105c-1.45,0-2.755-1.305-2.755-2.899V75.067
		c0-1.595,1.16-2.9,2.755-2.9h7.25c1.595,0,2.755,1.305,2.755,2.9v2.755c7.976-4.495,14.5-6.67,23.056-6.67
		c17.401,0,25.231,10.875,25.231,30.161v47.707C378.939,150.614,377.634,151.919,376.039,151.919z"/>
	<path fill="#FFFFFF" d="M447.088,150.47c-8.99,1.739-17.835,2.465-26.681,2.465c-21.605,0-31.611-14.065-31.611-35.816v-10.44
		c0-22.766,10.44-35.526,31.611-35.526c4.495,0,11.311,0.435,16.965,1.45V45.631c0-1.45,1.16-2.755,2.755-2.755h7.395
		c1.45,0,2.61,1.16,2.61,2.755v101.502C450.133,149.02,449.698,150.034,447.088,150.47z M437.373,83.332
		c-4.785-0.87-12.325-1.015-16.965-1.015c-14.21,0-18.851,8.845-18.851,24.36v10.44c0,15.806,4.495,24.65,18.851,24.65
		c4.93,0,12.035-0.435,16.965-0.869V83.332z"/>
	<path fill="#FFFFFF" d="M523.791,75.647l-19.576,69.022c-1.885,6.525-6.815,8.266-13.05,8.266s-11.166-1.74-13.05-8.266
		l-19.576-69.022c-0.145-0.435-0.145-0.725-0.145-1.015c0-1.45,0.87-2.465,2.32-2.465h7.976c1.16,0,2.175,0.87,2.755,2.755
		l16.676,63.222c0.87,3.48,1.595,4.205,3.045,4.205c1.305,0,2.175-0.725,3.045-4.205l16.676-63.222
		c0.58-1.885,1.595-2.755,2.755-2.755h7.975c1.45,0,2.32,1.015,2.32,2.465C523.936,74.922,523.936,75.212,523.791,75.647z"/>
	<path fill="#FFFFFF" d="M584.835,151.919h-6.67c-1.595,0-2.9-1.305-2.9-2.899v-3.19c-6.96,4.061-14.21,7.105-22.331,7.105
		c-12.325,0-23.636-5.365-23.636-23.491v-1.74c0-15.66,9.135-23.49,34.946-23.49h10.73v-5.8c0-12.181-4.205-16.386-15.515-16.386
		c-9.425,0-16.386,0.58-22.186,1.16c-0.29,0-0.435,0-0.725,0c-1.305,0-2.61-0.435-2.61-2.32v-5.075c0-1.595,1.015-2.465,3.045-2.755
		c5.945-1.015,12.615-1.885,22.476-1.885c20.155,0,28.276,10.15,28.276,27.261v50.606
		C587.736,150.614,586.431,151.919,584.835,151.919z M574.975,113.349h-10.73c-17.546,0-22.186,3.915-22.186,14.21v1.74
		c0,10.44,4.93,13.195,13.341,13.195c6.67,0,12.615-2.03,19.575-5.801V113.349z"/>
	<path fill="#FFFFFF" d="M611.804,151.919h-7.54c-1.45,0-2.61-1.305-2.61-2.899V45.631c0-1.45,1.015-2.755,2.61-2.755h7.54
		c1.45,0,2.61,1.16,2.61,2.755V149.02C614.414,150.47,613.399,151.919,611.804,151.919z"/>
	<path fill="#FFFFFF" d="M639.932,151.919h-7.54c-1.45,0-2.61-1.305-2.61-2.899V45.631c0-1.45,1.015-2.755,2.61-2.755h7.54
		c1.45,0,2.61,1.16,2.61,2.755V149.02C642.542,150.47,641.527,151.919,639.932,151.919z"/>
	<path fill="#FFFFFF" d="M715.187,116.104H666.61v2.029c0,17.256,6.815,23.636,20.156,23.636c8.41,0,19.141-0.58,25.811-1.595
		c0.29,0,0.435,0,0.725,0c1.16,0,2.32,0.58,2.32,2.03v4.93c0,1.886-0.58,2.9-2.9,3.336c-8.265,1.595-16.24,2.465-25.956,2.465
		c-16.676,0-32.916-7.83-32.916-34.802v-13.05c0-20.736,11.456-33.931,32.191-33.931c21.171,0,31.901,13.34,31.901,33.931v7.83
		C717.942,114.798,716.927,116.104,715.187,116.104z M705.037,105.083c0-16.386-6.235-22.766-18.996-22.766
		c-12.47,0-19.431,7.105-19.431,22.766v1.305h38.426V105.083z"/>
	<path fill="#FFFFFF" d="M789.86,75.647l-23.926,83.523c-4.495,15.66-9.86,21.46-26.535,21.46c-4.061,0-9.136-0.58-12.181-1.305
		c-1.74-0.436-3.045-0.87-3.045-2.32v-5.365c0-1.595,1.16-2.32,2.755-2.32c0.146,0,0.29,0,0.436,0
		c3.189,0.29,9.715,0.87,12.905,0.87c8.265,0,11.89-2.175,14.355-12.325l1.449-5.945h-2.029c-4.351,0-8.12-1.015-10.73-10.005
		l-19.286-66.267c-0.145-0.29-0.145-0.725-0.145-1.015c0-1.45,0.87-2.465,2.61-2.465h7.975c1.16,0,2.176,1.16,2.466,2.32
		l17.11,62.932c0.725,2.9,1.74,3.19,2.755,3.19h2.32l17.69-66.268c0.29-1.16,1.45-2.175,2.755-2.175h8.12
		c1.45,0,2.32,1.015,2.32,2.465C790.006,74.922,790.006,75.357,789.86,75.647z"/>
	<path fill="#FFFFFF" d="M874.394,151.919h-6.67c-1.596,0-2.9-1.305-2.9-2.899v-3.19c-6.96,4.061-14.21,7.105-22.331,7.105
		c-12.325,0-23.636-5.365-23.636-23.491v-1.74c0-15.66,9.136-23.49,34.946-23.49h10.73v-5.8c0-12.181-4.205-16.386-15.516-16.386
		c-9.425,0-16.386,0.58-22.186,1.16c-0.29,0-0.435,0-0.725,0c-1.306,0-2.61-0.435-2.61-2.32v-5.075c0-1.595,1.015-2.465,3.045-2.755
		c5.945-1.015,12.615-1.885,22.476-1.885c20.156,0,28.276,10.15,28.276,27.261v50.606
		C877.294,150.614,875.988,151.919,874.394,151.919z M864.533,113.349h-10.73c-17.545,0-22.186,3.915-22.186,14.21v1.74
		c0,10.44,4.93,13.195,13.341,13.195c6.67,0,12.615-2.03,19.575-5.801V113.349z"/>
	<path fill="#FFFFFF" d="M936.163,151.339c-4.785,0.87-11.311,1.596-18.126,1.596c-19.721,0-30.886-13.921-30.886-35.236v-11.311
		c0-21.315,11.021-35.236,30.886-35.236c6.671,0,13.341,0.725,18.126,1.595c2.32,0.435,2.899,1.16,2.899,3.19v5.22
		c0,1.45-1.159,2.175-2.465,2.175c-0.29,0-0.435,0-0.58,0c-6.38-0.725-10.875-1.015-17.98-1.015c-11.6,0-18.125,7.686-18.125,24.07
		v11.311c0,16.24,6.38,24.07,18.125,24.07c7.105,0,11.601-0.29,17.98-1.015c0.146,0,0.29,0,0.58,0c1.306,0,2.465,0.725,2.465,2.175
		v5.221C939.062,150.034,938.483,150.904,936.163,151.339z"/>
	<path fill="#FFFFFF" d="M1000.688,151.919h-6.67c-1.596,0-2.9-1.305-2.9-2.899v-3.19c-6.96,4.061-14.21,7.105-22.331,7.105
		c-12.325,0-23.636-5.365-23.636-23.491v-1.74c0-15.66,9.136-23.49,34.946-23.49h10.73v-5.8c0-12.181-4.205-16.386-15.516-16.386
		c-9.425,0-16.386,0.58-22.186,1.16c-0.29,0-0.435,0-0.725,0c-1.306,0-2.61-0.435-2.61-2.32v-5.075c0-1.595,1.015-2.465,3.045-2.755
		c5.945-1.015,12.615-1.885,22.476-1.885c20.156,0,28.276,10.15,28.276,27.261v50.606
		C1003.588,150.614,1002.282,151.919,1000.688,151.919z M990.827,113.349h-10.73c-17.545,0-22.186,3.915-22.186,14.21v1.74
		c0,10.44,4.931,13.195,13.341,13.195c6.67,0,12.615-2.03,19.575-5.801V113.349z"/>
	<path fill="#FFFFFF" d="M1071.737,150.47c-8.99,1.739-17.836,2.465-26.681,2.465c-21.605,0-31.611-14.065-31.611-35.816v-10.44
		c0-22.766,10.44-35.526,31.611-35.526c4.495,0,11.311,0.435,16.965,1.45V45.631c0-1.45,1.16-2.755,2.756-2.755h7.395
		c1.45,0,2.61,1.16,2.61,2.755v101.502C1074.782,149.02,1074.348,150.034,1071.737,150.47z M1062.021,83.332
		c-4.785-0.87-12.325-1.015-16.965-1.015c-14.211,0-18.851,8.845-18.851,24.36v10.44c0,15.806,4.495,24.65,18.851,24.65
		c4.93,0,12.035-0.435,16.965-0.869V83.332z"/>
	<path fill="#FFFFFF" d="M1145.975,116.104h-48.576v2.029c0,17.256,6.815,23.636,20.156,23.636c8.41,0,19.141-0.58,25.811-1.595
		c0.29,0,0.435,0,0.725,0c1.16,0,2.32,0.58,2.32,2.03v4.93c0,1.886-0.58,2.9-2.9,3.336c-8.265,1.595-16.24,2.465-25.955,2.465
		c-16.676,0-32.916-7.83-32.916-34.802v-13.05c0-20.736,11.455-33.931,32.19-33.931c21.171,0,31.901,13.34,31.901,33.931v7.83
		C1148.73,114.798,1147.715,116.104,1145.975,116.104z M1135.825,105.083c0-16.386-6.235-22.766-18.996-22.766
		c-12.47,0-19.431,7.105-19.431,22.766v1.305h38.427V105.083z"/>
	<path fill="#FFFFFF" d="M1251.97,151.919h-6.96c-1.596,0-2.9-1.305-2.9-2.899V97.688c0-12.18-5.655-15.515-13.195-15.515
		c-5.22,0-11.311,1.74-16.966,3.915c0.87,3.19,1.306,6.96,1.306,11.31v51.622c0,1.45-1.016,2.899-2.61,2.899h-7.686
		c-1.45,0-2.465-1.305-2.465-2.899V97.397c0-12.615-3.625-15.225-11.165-15.225c-5.221,0-11.601,2.61-17.69,5.655v61.192
		c0,1.45-1.016,2.899-2.61,2.899h-7.686c-1.449,0-2.465-1.305-2.465-2.899V75.067c0-1.595,1.16-2.9,2.755-2.9h7.251
		c1.595,0,2.755,1.305,2.755,2.9v2.755c5.8-3.625,13.195-6.815,21.171-6.815c6.234,0,10.875,1.74,14.5,5.945
		c7.975-3.77,16.53-5.945,24.07-5.945c13.051,0,23.491,6.525,23.491,26.681v51.332
		C1254.87,150.614,1253.564,151.919,1251.97,151.919z"/>
	<path fill="#FFFFFF" d="M1329.107,75.647l-23.926,83.523c-4.495,15.66-9.86,21.46-26.536,21.46c-4.06,0-9.135-0.58-12.18-1.305
		c-1.74-0.436-3.046-0.87-3.046-2.32v-5.365c0-1.595,1.16-2.32,2.756-2.32c0.145,0,0.29,0,0.435,0c3.19,0.29,9.716,0.87,12.905,0.87
		c8.266,0,11.891-2.175,14.355-12.325l1.45-5.945h-2.03c-4.35,0-8.12-1.015-10.73-10.005l-19.285-66.267
		c-0.145-0.29-0.145-0.725-0.145-1.015c0-1.45,0.869-2.465,2.609-2.465h7.976c1.16,0,2.175,1.16,2.465,2.32l17.11,62.932
		c0.726,2.9,1.74,3.19,2.756,3.19h2.319l17.69-66.268c0.29-1.16,1.45-2.175,2.756-2.175h8.12c1.45,0,2.319,1.015,2.319,2.465
		C1329.252,74.922,1329.252,75.357,1329.107,75.647z"/>
</g>
<g>
	<path fill="#FFFFFF" d="M97.65,87.92c0,0-5.81,3.029-41.13-28.16C21.2,28.56,0,0,0,0s69.97,5.76,85.97,24.18
		C95.669,35.34,97.65,87.92,97.65,87.92z"/>
</g>
<g>
	<path fill="#FFFFFF" d="M108.36,87.92c0,0,5.81,3.029,41.12-28.16C184.8,28.56,206,0,206,0s-69.96,5.76-85.97,24.18
		C110.34,35.34,108.36,87.92,108.36,87.92z"/>
</g>
</svg>
